<svg width="192" height="49" viewBox="0 0 192 49" fill="none" xmlns="http://www.w3.org/2000/svg">
<path d="M59.2183 19.2244L57.0261 37.4803C57.0261 37.8455 56.6607 38.0889 56.4171 38.0889H53.2506C52.8853 38.0889 52.5199 37.7238 52.6417 37.3586C52.7635 36.7501 52.0328 36.385 51.5456 36.7501C50.0842 37.8455 48.3791 38.454 46.3088 38.454C40.8283 38.454 37.4182 34.1943 38.149 28.3524C38.8797 22.3887 43.3859 18.2507 48.7445 18.2507C50.8149 18.2507 52.3981 18.8593 53.616 19.9546C53.9814 20.3197 54.7121 20.0763 54.7121 19.5895V19.1027C54.7121 18.7376 55.0775 18.4941 55.321 18.4941H58.4875C58.9747 18.4941 59.34 18.7376 59.2183 19.2244ZM53.616 28.2307C53.9814 24.8229 52.1546 22.5105 48.8663 22.5105C45.4562 22.5105 43.0205 24.9446 42.5333 28.2307C42.168 31.6384 43.9948 34.0726 47.4048 34.0726C50.6931 34.0726 53.2507 31.5167 53.616 28.2307Z" fill="#065648"/>
<path d="M62.8726 32.2468C63.238 32.0034 63.6033 32.1251 63.7251 32.4903C64.4558 33.7073 66.2827 34.9244 68.5966 34.9244C70.7888 34.9244 72.1285 34.1941 72.2503 32.612C72.4938 30.7864 69.6927 30.2995 68.1095 29.8127C66.5262 29.3259 61.5329 28.1088 62.0201 23.9708C62.5072 19.9545 66.2827 18.1289 70.4234 18.1289C74.1989 18.1289 76.6346 19.7111 77.6089 21.5367C77.7307 21.9018 77.6089 22.2669 77.3654 22.3886L75.1732 23.6057C74.9296 23.7274 74.5642 23.7274 74.3207 23.484C73.5899 22.5103 71.7631 21.5367 69.8145 21.5367C67.7441 21.5367 66.5262 22.3886 66.4045 23.6057C66.1609 25.4313 68.8402 25.7964 70.4234 26.4049C72.0067 26.8918 77.1218 28.2305 76.6346 32.3686C76.1475 36.3849 72.8592 38.5756 67.9877 38.5756C63.7251 38.5756 61.0458 36.75 60.1933 34.4376C60.0715 34.0724 60.1933 33.829 60.4369 33.5856L62.8726 32.2468Z" fill="#065648"/>
<path d="M98.3112 19.3462L84.7928 45.3914C84.6711 45.6348 84.4275 45.7565 84.1839 45.7565H81.261C80.7738 45.7565 80.4085 45.2697 80.652 44.7828L84.0621 38.2107C84.1839 38.089 84.1839 37.8456 84.0621 37.7239L79.0688 19.2245C78.947 18.8594 79.3124 18.3726 79.6777 18.3726H82.966C83.2096 18.3726 83.575 18.616 83.575 18.8594L86.6197 29.9347C86.7414 30.5432 87.594 30.6649 87.8375 30.0564L93.8051 18.7377C93.9269 18.4943 94.1705 18.3726 94.4141 18.3726H97.7023C98.3112 18.4943 98.5548 18.9811 98.3112 19.3462Z" fill="#065648"/>
<path d="M101.845 29.5692C102.21 29.3258 102.576 29.4475 102.819 29.8126C103.793 31.6382 106.595 33.7072 110.37 33.7072C114.145 33.7072 115.607 32.2468 115.972 30.056C116.338 27.3785 111.71 26.5266 109.517 25.7963C107.325 25.0661 100.505 23.849 101.236 17.8854C101.967 12.2869 107.082 9.85278 112.806 9.85278C117.677 9.85278 121.453 12.4086 122.549 15.0862C122.671 15.4513 122.549 15.6947 122.305 15.9381L119.26 17.642C119.017 17.7637 118.53 17.7637 118.408 17.3986C117.434 15.9381 114.998 14.4776 111.71 14.4776C108.665 14.4776 106.838 15.573 106.595 17.5203C106.229 20.1978 110.492 20.9281 112.806 21.6583C114.876 22.3885 121.94 23.9707 121.209 29.8126C120.478 35.4111 115.972 38.4538 109.274 38.4538C103.306 38.4538 99.6527 35.5328 98.5566 32.2468C98.4348 32.0034 98.5566 31.6382 98.8002 31.5165L101.845 29.5692Z" fill="#065648"/>
<path d="M131.437 21.9022C131.072 21.9022 130.828 22.1456 130.828 22.5107L129.61 32.0038C129.367 34.1945 130.706 34.4379 131.924 34.4379H132.655C133.02 34.4379 133.386 34.803 133.264 35.1682L133.02 37.3589C133.02 37.724 132.655 37.9674 132.411 37.9674H129.732C126.078 37.9674 124.617 36.0201 124.982 32.6123L126.2 22.6324C126.2 22.2673 125.957 21.9022 125.591 21.9022H124.495C124.13 21.9022 123.764 21.537 123.886 21.1719L124.13 18.9812C124.13 18.6161 124.495 18.3727 124.739 18.3727H126.2C126.566 18.3727 126.809 18.1293 126.809 17.7641L127.418 12.8959C127.418 12.5308 127.783 12.2874 128.027 12.2874H131.315C131.681 12.2874 132.046 12.6525 131.924 13.0176L131.315 17.5207C131.315 17.8859 131.559 18.251 131.924 18.251H134.725C135.091 18.251 135.456 18.6161 135.334 18.9812L135.091 21.1719C135.091 21.537 134.725 21.7805 134.482 21.7805H131.437V21.9022Z" fill="#065648"/>
<path d="M135.58 28.2305C136.311 22.2669 141.06 18.1289 146.906 18.1289C152.874 18.1289 156.406 22.3886 155.675 28.2305C154.944 34.0724 150.316 38.3322 144.349 38.3322C138.503 38.3322 134.849 34.0724 135.58 28.2305ZM151.169 28.2305C151.534 24.9445 149.707 22.5103 146.419 22.5103C143.131 22.5103 140.573 24.9445 140.208 28.2305C139.843 31.5166 141.669 34.0724 144.958 34.0724C148.246 34.0724 150.803 31.5166 151.169 28.2305Z" fill="#065648"/>
<path d="M171.262 18.9809L170.897 21.9018C170.897 22.267 170.653 22.5104 170.288 22.5104C167.852 22.6321 163.833 23.6057 163.224 28.5957L162.128 37.4802C162.128 37.8454 161.763 38.0888 161.519 38.0888H158.353C157.987 38.0888 157.622 37.7237 157.744 37.3585L159.936 19.1026C159.936 18.7375 160.301 18.494 160.545 18.494H163.711C164.077 18.494 164.442 18.8592 164.32 19.2243L164.198 19.9545C164.077 20.5631 164.807 20.9282 165.294 20.5631C166.878 19.2243 168.705 18.4941 170.531 18.2506C170.897 18.1289 171.262 18.4941 171.262 18.9809Z" fill="#065648"/>
<path d="M189.897 28.2308L189.775 28.961C189.775 29.3261 189.409 29.5695 189.166 29.5695H175.769C175.404 29.5695 175.038 29.9347 175.16 30.2998C175.526 32.8556 177.352 34.5595 180.032 34.5595C182.346 34.5595 184.051 33.5858 185.025 32.6122C185.269 32.3688 185.634 32.3688 185.878 32.6122L187.704 34.0727C187.948 34.3161 188.07 34.8029 187.826 35.0463C185.878 37.237 182.833 38.4541 179.545 38.4541C173.577 38.4541 170.167 34.0727 170.776 28.3525C171.507 22.5106 175.891 18.2508 181.737 18.2508C187.461 18.1291 190.627 22.3888 189.897 28.2308ZM176.378 26.5269H185.147C185.512 26.5269 185.878 26.1617 185.756 25.7966C185.39 23.4842 183.929 21.7803 181.25 21.7803C178.692 21.7803 176.744 23.2408 175.769 25.6749C175.526 26.04 175.891 26.5269 176.378 26.5269Z" fill="#065648"/>
<path d="M32.2989 26.6485H14.3961C12.9347 26.6485 11.7168 25.4315 11.7168 23.971C11.7168 22.5105 12.9347 21.2935 14.3961 21.2935H32.2989C33.7604 21.2935 34.9782 22.5105 34.9782 23.971C34.9782 25.5532 33.7604 26.6485 32.2989 26.6485Z" fill="#065648"/>
<path d="M29.0126 45.9999C30.4251 45.9999 31.5702 44.8556 31.5702 43.444C31.5702 42.0325 30.4251 40.8882 29.0126 40.8882C27.6001 40.8882 26.4551 42.0325 26.4551 43.444C26.4551 44.8556 27.6001 45.9999 29.0126 45.9999Z" fill="#065648"/>
<path d="M14.2743 45.9999C15.6868 45.9999 16.8319 44.8556 16.8319 43.444C16.8319 42.0325 15.6868 40.8882 14.2743 40.8882C12.8619 40.8882 11.7168 42.0325 11.7168 43.444C11.7168 44.8556 12.8619 45.9999 14.2743 45.9999Z" fill="#065648"/>
<path d="M36.0748 3.03741C34.6134 2.794 33.2737 3.76765 33.0302 5.10642V5.22812L32.1776 9.73127H13.1788C6.48044 9.73127 1 16.06 1 23.9709C1 31.8818 6.48044 38.2106 13.1788 38.2106H30.3508C31.2033 38.2106 32.0559 37.7237 32.543 36.9935C33.6391 35.2896 32.4212 32.9772 30.3508 32.9772H13.1788C8.79441 32.9772 5.26257 28.9609 5.26257 23.9709C5.26257 18.9809 8.79441 14.9646 13.1788 14.9646H34.3698C35.2223 14.9646 36.0749 14.4778 36.562 13.7476C36.8056 13.3825 36.9274 12.8956 36.9274 12.5305L37.0492 11.8003L38.0235 6.20178V6.08007C38.3888 4.7413 37.4145 3.40253 36.0748 3.03741Z" fill="#065648"/>
</svg>
